<svg width="1766" height="614" viewBox="0 0 1766 614" fill="none" xmlns="http://www.w3.org/2000/svg">
<g filter="url(#filter0_d)">
<g filter="url(#filter1_d)">
<rect x="4" width="1748" height="600" rx="300" fill="black"/>
</g>
<path d="M933.17 405.188C933.17 406.405 932.894 407.567 932.34 408.674C930.127 409.891 927.803 410.721 925.368 411.164C923.043 411.717 920.719 411.994 918.395 411.994C917.288 411.994 916.071 411.939 914.743 411.828C913.525 411.828 912.418 411.717 911.422 411.496C911.09 411.385 910.703 411.164 910.26 410.832C909.817 410.5 909.375 410.334 908.932 410.334C907.825 410.334 906.774 410.5 905.778 410.832C904.782 411.275 903.73 411.496 902.623 411.496C902.07 411.496 901.517 411.33 900.963 410.998C900.521 410.666 900.023 410.445 899.469 410.334C898.694 410.113 897.92 410.057 897.145 410.168C896.37 410.279 895.54 410.334 894.655 410.334C893.437 410.334 892.331 410.168 891.334 409.836C890.449 409.504 889.619 408.895 888.844 408.01C886.077 407.678 883.366 407.124 880.709 406.35C878.053 405.686 875.397 404.911 872.741 404.025C870.084 403.251 867.428 402.476 864.772 401.701C862.116 401.037 859.404 400.594 856.637 400.373C855.973 399.598 855.198 398.99 854.313 398.547C853.428 398.215 852.763 397.606 852.321 396.721C851.767 396.721 851.38 396.776 851.159 396.887C850.937 397.108 850.55 397.219 849.997 397.219C848.115 395.669 846.067 394.341 843.854 393.234C841.751 392.128 839.538 391.076 837.213 390.08C835 389.084 832.786 388.033 830.573 386.926C828.47 385.93 826.478 384.602 824.596 382.941H823.766C822.881 383.052 822.106 382.831 821.442 382.277C820.888 381.835 820.169 381.613 819.284 381.613C818.73 381.613 818.288 381.669 817.956 381.779C817.623 380.894 817.125 380.174 816.461 379.621C815.797 379.068 815.078 378.514 814.303 377.961C813.639 377.518 812.975 377.02 812.311 376.467C811.647 376.024 811.149 375.415 810.817 374.641C808.05 373.645 805.338 372.427 802.682 370.988C800.136 369.66 797.868 367.889 795.875 365.676C793.662 365.454 791.836 364.79 790.397 363.684C788.958 362.466 787.63 360.972 786.413 359.201C783.756 358.316 781.321 357.154 779.108 355.715C776.894 354.276 774.681 352.782 772.467 351.232C770.364 349.683 768.095 348.299 765.661 347.082C763.336 345.754 760.68 344.813 757.692 344.26C757.581 343.485 757.249 342.932 756.696 342.6C756.142 342.157 755.478 341.825 754.704 341.604C754.039 341.271 753.375 340.995 752.711 340.773C752.047 340.552 751.549 340.109 751.217 339.445C750.885 339.445 750.553 339.445 750.221 339.445C749.889 339.335 749.557 339.279 749.225 339.279C748.893 339.279 748.506 339.335 748.063 339.445C747.731 339.445 747.399 339.445 747.067 339.445L747.233 338.947C747.233 338.505 747.067 338.228 746.735 338.117C746.513 338.007 746.181 337.896 745.739 337.785C745.296 337.674 744.909 337.508 744.577 337.287C744.245 337.066 744.079 336.568 744.079 335.793H743.581C742.363 335.793 741.256 335.572 740.26 335.129C739.264 334.686 738.157 334.354 736.94 334.133C736.719 335.35 736.608 336.512 736.608 337.619V340.607C736.608 345.588 737.161 350.845 738.268 356.379C739.375 361.802 741.09 366.672 743.414 370.988C745.739 371.874 747.731 373.036 749.391 374.475C751.051 375.913 752.656 377.574 754.206 379.455C754.316 382.443 753.209 384.934 750.885 386.926C748.672 389.029 746.071 390.08 743.082 390.08C741.422 390.08 739.873 389.637 738.434 388.752C737.106 387.977 735.999 386.815 735.114 385.266C734.45 385.266 733.841 385.376 733.288 385.598C732.734 385.93 732.07 386.096 731.295 386.096C730.963 386.096 730.631 386.04 730.299 385.93C729.192 384.048 728.086 382.388 726.979 380.949C725.983 379.51 725.319 377.574 724.987 375.139C723.769 374.585 722.995 373.589 722.663 372.15C722.441 370.712 721.832 369.549 720.836 368.664C720.394 363.684 719.785 358.703 719.01 353.723C718.346 348.742 718.014 343.762 718.014 338.781C718.014 337.674 718.069 336.568 718.18 335.461C718.291 334.243 718.401 333.026 718.512 331.809C718.291 331.255 717.959 330.757 717.516 330.314C717.184 329.761 716.907 329.208 716.686 328.654C714.472 329.208 712.148 329.761 709.713 330.314C707.389 330.757 705.01 330.979 702.575 330.979C701.025 330.979 699.144 330.757 696.93 330.314C694.717 329.761 693.001 329.042 691.784 328.156C690.898 327.603 690.289 326.607 689.957 325.168C689.515 323.618 689.293 322.29 689.293 321.184C689.293 319.302 689.625 317.421 690.289 315.539C690.954 313.547 691.839 311.831 692.946 310.393C698.369 308.179 703.405 305.467 708.053 302.258C712.812 299.048 717.461 295.562 721.998 291.799C722.109 290.692 722.275 289.585 722.497 288.479C722.829 287.372 722.995 286.21 722.995 284.992C722.995 283.664 722.663 282.391 721.998 281.174C722.663 280.51 722.995 279.68 722.995 278.684C722.995 277.577 723.271 276.581 723.825 275.695V274.699C723.825 274.257 723.769 273.814 723.659 273.371C723.659 272.928 723.493 272.486 723.161 272.043C723.935 267.727 724.544 263.465 724.987 259.26C725.429 254.943 725.651 250.516 725.651 245.979C725.651 245.646 725.817 244.761 726.149 243.322C726.592 241.773 726.868 240.721 726.979 240.168C727.422 237.622 727.698 235.132 727.809 232.697C728.03 230.152 728.307 227.606 728.639 225.061C728.75 224.175 728.971 223.013 729.303 221.574C729.635 220.135 729.801 219.139 729.801 218.586C729.801 217.811 729.635 217.313 729.303 217.092C729.082 216.76 728.86 216.262 728.639 215.598C729.303 213.052 729.635 210.507 729.635 207.961C729.746 205.305 729.967 202.704 730.299 200.158C732.181 199.383 733.675 198.609 734.782 197.834C735.888 197.059 737.493 196.672 739.596 196.672H739.928C740.15 198 740.648 199.273 741.422 200.49C742.197 201.597 742.972 202.759 743.747 203.977C744.632 205.083 745.407 206.19 746.071 207.297C746.735 208.293 747.067 209.289 747.067 210.285C747.067 212.167 746.901 214.214 746.569 216.428C746.237 218.641 745.96 220.689 745.739 222.57C745.185 227.551 744.687 232.476 744.245 237.346C743.802 242.105 743.138 246.975 742.252 251.955C742.584 253.505 742.75 254.943 742.75 256.271C742.75 258.264 742.584 260.256 742.252 262.248C741.92 264.24 741.754 266.288 741.754 268.391C741.754 269.387 741.81 270.438 741.92 271.545C742.142 272.652 742.474 273.648 742.916 274.533C746.679 273.537 750.055 271.49 753.043 268.391C753.486 267.948 753.929 267.395 754.372 266.73C754.925 265.956 755.478 265.347 756.032 264.904C757.138 264.019 758.301 263.244 759.518 262.58C760.846 261.805 762.119 261.031 763.336 260.256C766.214 258.374 768.981 256.438 771.637 254.445C774.404 252.342 777.171 250.295 779.938 248.303C788.128 242.326 796.041 236.128 803.678 229.709C811.426 223.179 818.952 216.317 826.256 209.123C826.588 207.242 827.252 205.747 828.248 204.641C829.245 203.534 830.13 202.206 830.905 200.656C833.008 199.882 834.834 198.719 836.383 197.17C837.047 197.391 837.711 197.557 838.375 197.668C839.15 197.668 839.87 197.668 840.534 197.668C841.308 197.668 842.028 197.723 842.692 197.834C843.467 197.834 844.131 198 844.684 198.332C844.795 199.992 844.961 201.486 845.182 202.814C845.403 204.143 846.067 205.415 847.174 206.633C847.174 206.854 847.174 207.076 847.174 207.297C847.285 207.518 847.34 207.74 847.34 207.961C847.34 209.178 847.008 210.174 846.344 210.949C845.68 211.724 845.293 212.665 845.182 213.771L836.549 222.404C833.672 225.282 831.015 228.381 828.581 231.701C827.695 231.812 826.92 232.089 826.256 232.531C825.592 232.974 824.928 233.472 824.264 234.025C823.711 234.468 823.102 234.911 822.438 235.354C821.774 235.796 821.054 236.128 820.28 236.35C818.288 239.006 816.019 241.441 813.473 243.654C810.928 245.757 808.327 247.805 805.67 249.797C803.014 251.789 800.358 253.837 797.702 255.939C795.156 257.932 792.776 260.145 790.563 262.58C788.239 263.687 785.97 265.015 783.756 266.564C781.653 268.003 779.938 269.829 778.61 272.043H777.78C777.226 272.043 776.784 272.209 776.452 272.541C776.12 272.762 775.677 272.873 775.123 272.873C769.147 278.075 762.949 283 756.53 287.648C750.11 292.186 743.968 297.167 738.102 302.59V306.74C739.984 307.847 742.031 308.898 744.245 309.895C746.458 310.78 748.616 311.776 750.719 312.883C752.933 313.99 754.98 315.207 756.862 316.535C758.854 317.753 760.569 319.247 762.008 321.018C762.23 320.907 762.506 320.852 762.838 320.852C763.834 320.852 764.609 321.184 765.163 321.848C765.716 322.401 766.657 322.567 767.985 322.346C768.428 324.117 769.424 325.389 770.973 326.164C772.523 326.939 774.072 327.603 775.622 328.156C776.95 329.484 778.167 330.757 779.274 331.975C780.381 333.081 781.985 333.801 784.088 334.133C784.31 334.576 784.476 335.074 784.586 335.627C784.697 336.18 784.918 336.678 785.25 337.121C787.353 337.785 789.345 338.726 791.227 339.943C793.219 341.161 795.156 342.434 797.038 343.762C798.919 344.979 800.801 346.197 802.682 347.414C804.674 348.521 806.777 349.406 808.991 350.07C809.323 351.177 809.931 351.952 810.817 352.395C811.813 352.837 812.588 353.501 813.141 354.387H816.129C816.461 354.94 816.904 355.493 817.457 356.047C818.011 356.49 818.398 357.154 818.62 358.039C819.505 358.26 820.501 358.592 821.608 359.035C822.715 359.367 823.711 359.81 824.596 360.363C824.928 360.695 825.15 361.083 825.26 361.525C825.482 361.968 825.814 362.355 826.256 362.688C826.92 363.241 827.916 363.684 829.245 364.016C830.683 364.237 831.901 364.624 832.897 365.178C834.889 366.285 836.826 367.502 838.707 368.83C840.589 370.269 842.581 371.597 844.684 372.814L851.159 376.301C852.265 376.854 853.261 377.463 854.147 378.127C855.143 378.791 856.139 379.4 857.135 379.953C859.127 380.839 861.23 381.392 863.444 381.613C865.768 381.945 867.871 382.554 869.752 383.439C870.306 383.771 870.693 384.159 870.914 384.602C871.136 385.155 871.523 385.598 872.077 385.93C872.962 386.483 874.345 386.87 876.227 387.092C878.109 387.313 879.658 387.701 880.875 388.254C882.425 388.918 883.919 389.527 885.358 390.08C886.907 390.744 888.457 391.519 890.006 392.404C893.327 392.626 896.592 393.013 899.801 393.566C903.122 394.12 906.386 394.673 909.596 395.227C912.806 395.78 916.015 396.278 919.225 396.721C922.545 397.163 925.866 397.329 929.186 397.219C929.186 397.44 929.297 397.551 929.518 397.551C929.85 397.661 930.127 397.717 930.348 397.717C931.123 398.934 931.787 400.152 932.34 401.369C932.894 402.587 933.17 403.859 933.17 405.188ZM937.487 262.414V263.078C936.712 263.299 936.325 263.853 936.325 264.738C935.107 265.292 933.834 265.734 932.506 266.066C931.178 266.288 929.905 266.675 928.688 267.229C927.47 267.118 926.198 267.062 924.87 267.062C923.652 266.952 922.435 266.896 921.217 266.896C917.897 266.896 914.577 267.007 911.256 267.229C907.936 267.45 904.616 267.45 901.295 267.229C899.746 268.114 898.03 268.833 896.149 269.387C894.378 269.829 892.663 270.051 891.002 270.051C889.674 270.051 888.512 269.885 887.516 269.553C884.86 270.881 881.927 271.988 878.717 272.873C875.618 273.758 872.464 274.644 869.254 275.529C866.045 276.304 862.946 277.245 859.957 278.352C857.08 279.348 854.534 280.786 852.321 282.668C852.099 284.217 851.933 285.767 851.823 287.316C851.712 288.755 851.657 290.194 851.657 291.633C851.657 293.182 851.712 294.621 851.823 295.949C852.044 297.277 852.431 298.605 852.985 299.934C853.538 300.155 854.147 300.321 854.811 300.432C855.586 300.542 856.25 300.598 856.803 300.598C857.357 300.598 857.91 300.542 858.463 300.432C859.017 300.21 859.404 299.823 859.625 299.27C861.286 299.048 862.946 298.993 864.606 299.104C866.266 299.104 867.926 299.104 869.586 299.104C871.247 299.104 872.851 299.048 874.401 298.938C876.061 298.827 877.666 298.55 879.215 298.107C880.986 297.665 882.702 297.388 884.362 297.277C886.133 297.167 887.848 297.056 889.508 296.945C891.168 296.835 892.884 296.669 894.655 296.447C896.426 296.115 898.252 295.507 900.133 294.621C901.572 295.174 903.011 295.451 904.45 295.451C905.999 295.451 907.493 295.562 908.932 295.783C909.707 296.337 910.316 296.945 910.758 297.609C911.312 298.273 911.588 299.048 911.588 299.934C911.588 301.483 911.035 303.033 909.928 304.582C908.821 306.132 907.936 307.57 907.272 308.898H905.446C902.789 308.898 900.189 309.286 897.643 310.061C895.208 310.725 892.718 311.555 890.172 312.551C887.737 313.436 885.247 314.266 882.702 315.041C880.267 315.705 877.721 316.037 875.065 316.037C874.622 316.037 874.345 316.314 874.235 316.867C874.235 317.31 874.124 317.642 873.903 317.863C873.349 317.753 872.519 317.697 871.413 317.697C868.867 317.697 866.432 317.974 864.108 318.527C861.784 319.081 859.404 319.357 856.969 319.357C856.305 319.357 855.641 319.357 854.977 319.357C854.313 319.247 853.649 319.136 852.985 319.025C852.431 319.911 851.712 320.52 850.827 320.852C849.941 321.073 849.111 321.516 848.336 322.18C848.004 323.176 847.783 324.393 847.672 325.832C847.672 327.271 847.617 328.765 847.506 330.314C847.506 331.753 847.396 333.137 847.174 334.465C846.953 335.793 846.51 336.844 845.846 337.619C845.957 338.173 846.4 338.394 847.174 338.283C847.949 338.062 848.336 338.394 848.336 339.279C848.336 340.275 848.226 341.327 848.004 342.434C847.783 343.54 847.672 344.647 847.672 345.754C847.672 347.857 847.894 350.181 848.336 352.727C848.89 355.161 849.664 357.43 850.661 359.533C851.767 361.636 853.206 363.407 854.977 364.846C856.748 366.174 858.961 366.838 861.618 366.838C863.388 366.838 865.049 366.506 866.598 365.842C868.148 365.178 869.42 364.071 870.416 362.521L871.247 362.355C871.689 362.355 872.077 362.411 872.409 362.521C872.851 362.632 873.294 362.688 873.737 362.688C874.401 362.688 875.231 362.3 876.227 361.525C877.334 360.64 878.496 359.644 879.713 358.537C881.041 357.43 882.37 356.379 883.698 355.383C885.026 354.276 886.299 353.501 887.516 353.059C888.291 351.509 889.01 349.96 889.674 348.41C890.449 346.861 891.556 345.643 892.995 344.758V339.943C894.101 338.726 895.263 337.619 896.481 336.623C897.809 335.627 898.805 334.354 899.469 332.805C900.023 333.026 900.521 333.192 900.963 333.303C901.517 333.413 902.07 333.469 902.623 333.469C903.177 333.469 903.73 333.413 904.284 333.303C904.948 333.192 905.556 333.026 906.11 332.805C906.995 334.022 907.659 335.406 908.102 336.955C908.655 338.394 909.319 339.777 910.094 341.105C909.098 343.098 907.936 345.477 906.608 348.244C905.28 351.011 903.841 353.778 902.291 356.545C900.742 359.312 899.082 361.968 897.311 364.514C895.651 366.949 893.991 368.83 892.331 370.158C891.998 370.49 891.279 370.878 890.172 371.32C888.955 372.206 887.848 373.036 886.852 373.811C885.856 374.696 884.915 375.692 884.03 376.799C880.82 377.795 877.721 379.123 874.733 380.783C871.855 382.443 868.978 384.048 866.1 385.598C864.772 385.266 863.333 385.1 861.784 385.1C860.456 385.1 859.127 385.155 857.799 385.266C856.471 385.487 855.032 385.598 853.483 385.598C853.04 385.044 852.376 384.657 851.491 384.436C850.716 384.325 850.439 383.771 850.661 382.775C846.898 382.554 843.854 381.503 841.53 379.621C839.206 377.85 837.213 375.637 835.553 372.98C834.004 370.324 832.731 367.447 831.735 364.348C830.739 361.249 829.687 358.26 828.581 355.383V354.885C828.581 354.331 828.802 353.999 829.245 353.889C829.687 353.778 829.909 353.446 829.909 352.893C829.909 352.671 829.853 352.505 829.743 352.395C829.411 351.177 829.134 350.126 828.913 349.24C828.691 348.355 828.581 347.303 828.581 346.086C828.581 344.315 828.691 342.6 828.913 340.939C829.134 339.169 829.245 337.398 829.245 335.627C829.245 333.856 829.023 332.307 828.581 330.979C829.023 330.425 829.411 329.706 829.743 328.82C829.964 327.824 830.13 326.828 830.241 325.832C830.351 324.836 830.407 323.84 830.407 322.844C830.517 321.848 830.683 320.962 830.905 320.188C830.462 318.97 830.075 317.919 829.743 317.033C829.411 316.037 829.245 314.875 829.245 313.547V312.385C830.351 310.503 831.292 308.566 832.067 306.574C832.842 304.582 833.672 302.535 834.557 300.432V299.934C834.557 296.724 834.446 293.514 834.225 290.305C834.004 287.095 833.893 283.885 833.893 280.676V277.521C833.893 276.415 833.948 275.363 834.059 274.367C834.944 273.924 835.609 273.316 836.051 272.541C836.494 271.766 837.158 271.158 838.043 270.715H843.522L844.518 269.055C844.85 268.501 845.071 267.893 845.182 267.229C846.4 266.896 847.562 266.454 848.668 265.9C849.886 265.236 850.993 264.572 851.989 263.908C853.538 263.023 854.922 262.248 856.139 261.584C857.467 260.809 858.74 260.201 859.957 259.758C861.286 259.204 862.669 258.762 864.108 258.43C865.547 258.098 867.207 257.821 869.088 257.6C869.974 257.6 870.527 257.434 870.748 257.102C871.081 256.77 871.523 256.382 872.077 255.939C873.405 256.161 874.733 256.382 876.061 256.604C877.389 256.714 878.717 256.77 880.045 256.77C882.702 256.77 885.192 256.271 887.516 255.275C890.836 255.275 894.101 255.22 897.311 255.109C900.631 254.999 903.952 254.943 907.272 254.943C910.15 254.943 913.027 255.054 915.905 255.275C918.782 255.497 921.605 255.884 924.372 256.438C925.368 256.105 926.474 255.939 927.692 255.939C929.02 255.939 930.348 256.105 931.676 256.438C933.115 256.659 934.498 256.659 935.827 256.438C935.937 257.655 936.214 258.706 936.657 259.592C937.21 260.367 937.487 261.307 937.487 262.414ZM1017.34 253.781C1017.34 254.777 1016.9 255.607 1016.01 256.271C1015.24 256.936 1014.85 257.434 1014.85 257.766C1014.85 258.43 1014.96 258.928 1015.18 259.26C1015.4 259.481 1015.51 259.758 1015.51 260.09V260.92C1014.41 262.027 1013.58 263.244 1013.02 264.572C1012.47 265.79 1012.03 267.118 1011.7 268.557C1011.36 269.885 1011.03 271.268 1010.7 272.707C1010.48 274.146 1010.15 275.529 1009.7 276.857C1009.15 278.186 1008.43 279.348 1007.55 280.344C1006.66 281.229 1005.94 282.281 1005.39 283.498C1004.5 285.49 1003.84 287.538 1003.39 289.641C1002.95 291.743 1002.01 293.68 1000.57 295.451V296.281C1000.46 297.056 1000.68 297.72 1001.24 298.273C999.134 301.04 997.474 304.361 996.256 308.234C995.039 311.997 994.043 315.982 993.268 320.188C992.493 324.283 991.829 328.433 991.276 332.639C990.722 336.734 990.058 340.441 989.284 343.762C989.837 346.197 990.667 348.521 991.774 350.734C992.991 352.837 994.153 355.051 995.26 357.375C997.474 357.928 999.577 358.703 1001.57 359.699C1003.67 360.695 1005.17 362.3 1006.05 364.514C1005.83 366.727 1005.11 368.443 1003.89 369.66C1002.68 370.878 1001.18 372.15 999.411 373.479C998.193 373.036 997.197 372.648 996.422 372.316C995.648 372.095 994.485 372.095 992.936 372.316C990.833 370.656 988.841 369.328 986.959 368.332C985.189 367.336 983.584 365.62 982.145 363.186C981.924 362.854 981.592 362.688 981.149 362.688H979.655C979.101 361.359 978.437 359.976 977.663 358.537C976.888 356.988 976.113 355.438 975.338 353.889C974.564 352.229 973.9 350.624 973.346 349.074C972.793 347.414 972.516 345.92 972.516 344.592C972.516 338.947 973.014 333.358 974.01 327.824C975.117 322.18 975.67 316.48 975.67 310.725V309.064C973.457 309.618 971.243 310.393 969.03 311.389C966.927 312.385 964.769 313.16 962.555 313.713C961.78 313.934 961.338 314.322 961.227 314.875C961.116 315.428 960.784 315.871 960.231 316.203C959.124 316.314 958.073 316.424 957.077 316.535C956.081 316.535 955.14 316.535 954.254 316.535C952.373 316.535 950.381 316.48 948.278 316.369C946.286 316.148 944.293 315.76 942.301 315.207C940.309 314.654 938.428 313.879 936.657 312.883C934.997 311.887 933.502 310.614 932.174 309.064C931.953 309.175 931.676 309.286 931.344 309.396C931.012 309.507 930.68 309.562 930.348 309.562C930.016 309.562 929.684 309.507 929.352 309.396C929.02 309.286 928.743 309.175 928.522 309.064C927.636 307.847 926.917 306.519 926.364 305.08L924.704 300.764C924.15 299.325 923.541 297.941 922.877 296.613C922.213 295.285 921.328 294.068 920.221 292.961C919.889 290.969 919.723 289.032 919.723 287.15C919.723 285.158 919.889 283.221 920.221 281.34C920.442 279.458 920.83 277.577 921.383 275.695C920.941 274.367 920.664 272.984 920.553 271.545C920.332 270.106 920.221 268.667 920.221 267.229C920.221 265.568 920.387 263.853 920.719 262.082C921.051 260.311 921.605 258.706 922.379 257.268C923.154 255.718 924.261 254.445 925.7 253.449C927.028 252.453 928.688 251.955 930.68 251.955C932.894 251.955 934.941 252.564 936.823 253.781C938.704 254.888 940.53 256.05 942.301 257.268C942.523 258.596 942.689 259.924 942.799 261.252C942.91 262.469 942.965 263.798 942.965 265.236C942.965 267.893 942.799 270.604 942.467 273.371C942.246 276.027 942.135 278.739 942.135 281.506C942.135 284.383 942.467 287.095 943.131 289.641C943.906 292.076 945.234 294.4 947.116 296.613H947.78C948.665 296.503 949.44 296.669 950.104 297.111C950.768 297.554 951.543 297.775 952.428 297.775C953.203 297.775 953.812 297.499 954.254 296.945C954.697 296.281 955.25 295.949 955.914 295.949C956.579 295.949 957.077 296.06 957.409 296.281C957.741 296.503 958.017 296.613 958.239 296.613C959.456 296.613 960.84 296.171 962.389 295.285C963.939 294.4 964.935 293.404 965.377 292.297C965.82 292.629 966.373 292.795 967.038 292.795C967.923 292.795 968.753 292.518 969.528 291.965C970.303 291.411 971.299 291.135 972.516 291.135C973.18 291.135 973.401 290.747 973.18 289.973C973.069 289.087 973.291 288.534 973.844 288.312C975.172 287.759 976.611 286.984 978.161 285.988C979.821 284.882 981.149 284.217 982.145 283.996C982.698 282.557 983.362 281.229 984.137 280.012C985.023 278.684 985.908 277.466 986.793 276.359C987.125 273.814 987.789 271.379 988.786 269.055C989.782 266.73 990.833 264.406 991.94 262.082C993.047 259.758 994.098 257.434 995.094 255.109C996.09 252.785 996.754 250.35 997.086 247.805C998.304 246.587 999.245 245.259 999.909 243.82C1000.68 242.382 1001.35 240.943 1001.9 239.504C1003.01 239.172 1004.39 239.006 1006.05 239.006C1007.71 238.895 1009.15 238.84 1010.37 238.84H1013.19C1013.52 239.504 1013.96 240.113 1014.52 240.666L1016.18 242.326C1015.18 243.876 1014.68 245.425 1014.68 246.975C1014.68 248.192 1014.96 249.41 1015.51 250.627C1016.07 251.734 1016.68 252.785 1017.34 253.781ZM1191.82 275.197C1191.82 281.506 1191.38 287.648 1190.49 293.625C1189.72 299.491 1188.56 305.467 1187.01 311.555C1185.57 312.661 1184.68 314.045 1184.35 315.705C1184.02 317.365 1183.47 318.915 1182.69 320.354C1182.03 321.571 1181.14 322.899 1180.04 324.338C1178.93 325.666 1177.71 327.105 1176.38 328.654C1175.06 330.093 1173.73 331.587 1172.4 333.137C1171.07 334.686 1169.96 336.236 1169.08 337.785C1165.76 338.892 1163.38 341.271 1161.94 344.924C1160.17 345.588 1158.34 346.363 1156.46 347.248C1154.58 348.023 1153.25 349.406 1152.48 351.398C1148.38 353.501 1144.51 355.936 1140.86 358.703C1137.31 361.359 1133.44 363.684 1129.23 365.676C1128.68 366.229 1128.02 366.672 1127.24 367.004C1126.58 367.225 1125.86 367.502 1125.08 367.834C1124.42 368.166 1123.76 368.553 1123.09 368.996C1122.54 369.549 1122.21 370.214 1122.1 370.988C1121.65 370.988 1121.32 370.878 1121.1 370.656C1120.99 370.546 1120.66 370.435 1120.1 370.324C1118.89 370.988 1118.33 372.04 1118.44 373.479C1118 373.257 1117.39 373.146 1116.62 373.146C1115.29 373.146 1113.96 373.534 1112.63 374.309C1111.42 375.194 1110.36 376.079 1109.48 376.965C1108.15 377.629 1106.6 378.293 1104.83 378.957C1103.17 379.621 1101.95 380.728 1101.18 382.277C1100.74 381.835 1100.07 381.613 1099.19 381.613C1098.19 381.613 1097.14 381.89 1096.03 382.443C1094.92 383.107 1094.09 383.827 1093.54 384.602C1091.99 384.602 1090.5 384.823 1089.06 385.266C1087.73 385.819 1086.35 386.317 1084.91 386.76C1083.47 387.313 1082.03 387.811 1080.59 388.254C1079.26 388.697 1077.83 388.918 1076.28 388.918C1075.39 388.918 1074.73 388.697 1074.28 388.254C1073.84 387.811 1073.29 387.424 1072.62 387.092C1072.07 387.535 1071.07 388.033 1069.64 388.586C1068.31 389.139 1067.31 389.416 1066.65 389.416C1065.43 389.416 1064.21 389.25 1062.99 388.918C1061.89 388.586 1060.73 388.199 1059.51 387.756L1056.02 386.594C1054.92 386.262 1053.7 386.04 1052.37 385.93C1051.37 385.044 1050.16 384.104 1048.72 383.107C1047.39 382.222 1046.06 381.945 1044.73 382.277C1044.18 380.617 1043.35 379.178 1042.24 377.961C1041.14 376.743 1039.86 375.637 1038.42 374.641C1038.09 374.419 1037.7 374.198 1037.26 373.977C1036.93 373.866 1036.65 373.7 1036.43 373.479C1035.88 373.146 1035.38 372.482 1034.94 371.486C1034.5 370.49 1034 369.992 1033.44 369.992C1033.33 369.992 1033.17 370.048 1032.95 370.158C1032.84 370.269 1032.72 370.324 1032.61 370.324C1032.39 369.328 1032.06 368.387 1031.62 367.502C1031.17 366.506 1030.4 365.897 1029.29 365.676C1028.41 362.798 1027.8 359.921 1027.47 357.043C1027.14 354.165 1026.69 351.288 1026.14 348.41C1025.92 347.525 1025.64 346.473 1025.31 345.256C1025.09 343.928 1024.98 342.766 1024.98 341.77C1024.98 340.109 1025.2 338.117 1025.64 335.793C1026.19 333.469 1026.64 331.421 1026.97 329.65C1028.3 323.231 1030.07 317.033 1032.28 311.057C1034.5 304.969 1036.87 298.938 1039.42 292.961C1042.08 286.984 1044.79 281.063 1047.56 275.197C1050.32 269.331 1052.92 263.355 1055.36 257.268C1055.8 257.268 1056.08 257.157 1056.19 256.936L1056.69 256.105C1056.91 255.773 1057.07 255.497 1057.18 255.275C1057.41 255.054 1057.79 254.943 1058.35 254.943V254.445C1058.24 253.781 1058.35 253.228 1058.68 252.785C1059.12 252.342 1059.23 251.623 1059.01 250.627C1060.78 248.635 1062.28 246.421 1063.49 243.986C1064.71 241.441 1065.93 238.951 1067.14 236.516C1068.47 234.081 1069.86 231.701 1071.3 229.377C1072.73 227.053 1074.56 225.061 1076.77 223.4V222.238C1076.66 221.685 1076.66 221.132 1076.77 220.578C1077 219.914 1077.38 219.471 1077.94 219.25C1079.93 217.258 1081.59 215.266 1082.92 213.273C1084.24 211.281 1085.57 209.344 1086.9 207.463C1088.34 205.471 1089.89 203.645 1091.55 201.984C1093.32 200.214 1095.53 198.609 1098.19 197.17C1099.41 196.617 1100.29 195.786 1100.85 194.68C1101.4 193.573 1102.12 192.798 1103 192.355C1103.45 192.134 1103.89 192.023 1104.33 192.023C1104.89 191.913 1105.38 191.747 1105.83 191.525C1107.71 190.972 1109.59 190.308 1111.47 189.533C1113.35 188.648 1115.34 188.205 1117.45 188.205C1120.1 188.205 1122.1 188.98 1123.42 190.529C1124.86 191.968 1125.97 193.739 1126.74 195.842C1127.63 197.945 1128.35 200.158 1128.9 202.482C1129.46 204.807 1130.34 206.799 1131.56 208.459C1134.88 208.68 1138.25 209.068 1141.69 209.621C1145.12 210.064 1148.11 211.447 1150.65 213.771C1150.87 213.882 1151.15 213.938 1151.48 213.938C1152.03 213.938 1152.31 213.716 1152.31 213.273C1152.31 212.831 1152.59 212.609 1153.14 212.609H1153.64C1156.96 214.602 1160.11 216.815 1163.1 219.25C1166.2 221.574 1169.24 224.009 1172.23 226.555C1172.79 226.997 1173.34 227.44 1173.89 227.883C1174.56 228.215 1175.11 228.658 1175.55 229.211C1176.11 229.875 1176.6 230.65 1177.05 231.535C1177.6 232.421 1178.1 233.195 1178.54 233.859C1184.08 243.488 1187.78 253.837 1189.66 264.904C1189.89 266.122 1190.05 267.284 1190.16 268.391C1190.38 269.497 1190.49 270.549 1190.49 271.545C1190.49 272.541 1190.72 273.205 1191.16 273.537C1191.6 273.758 1191.82 274.312 1191.82 275.197ZM1179.04 283.664C1179.04 279.237 1178.49 274.976 1177.38 270.881C1177.93 270.66 1178.26 270.327 1178.38 269.885C1178.6 269.331 1178.71 268.778 1178.71 268.225V267.395L1176.72 263.742C1176.6 262.193 1176.27 260.754 1175.72 259.426C1175.28 258.098 1174.72 256.77 1174.06 255.441C1173.39 254.113 1172.73 252.785 1172.07 251.457C1171.51 250.129 1171.13 248.69 1170.9 247.141C1169.13 245.812 1167.53 244.318 1166.09 242.658C1164.76 240.887 1163.54 239.061 1162.44 237.18C1161.66 236.848 1160.94 236.626 1160.28 236.516C1159.62 236.405 1159.39 235.796 1159.62 234.689C1157.62 234.136 1155.8 233.361 1154.14 232.365C1152.59 231.258 1151.04 230.041 1149.49 228.713C1146.94 228.16 1144.4 227.495 1141.85 226.721C1139.42 225.835 1136.93 225.393 1134.38 225.393C1132.61 225.393 1130.89 225.725 1129.23 226.389C1129.79 227.274 1130.06 228.27 1130.06 229.377C1130.06 230.373 1130.18 231.369 1130.4 232.365C1133.94 233.251 1136.1 235.409 1136.87 238.84C1136.32 239.172 1135.82 239.615 1135.38 240.168C1134.93 240.611 1134.49 241.053 1134.05 241.496C1133.72 241.828 1133.27 242.16 1132.72 242.492C1132.17 242.824 1131.5 242.99 1130.73 242.99C1129.18 242.99 1127.96 242.714 1127.08 242.16C1126.3 241.607 1125.03 241.496 1123.26 241.828C1121.38 240.168 1119.55 238.452 1117.78 236.682C1116.01 234.8 1114.02 233.14 1111.8 231.701C1111.47 230.594 1110.92 229.598 1110.14 228.713C1109.48 227.827 1108.76 226.997 1107.98 226.223C1107.32 225.337 1106.66 224.452 1105.99 223.566C1105.44 222.57 1105.16 221.464 1105.16 220.246C1105.16 219.471 1105.22 218.918 1105.33 218.586C1104.66 218.365 1104.17 218.254 1103.83 218.254C1102.95 218.254 1102.12 218.586 1101.34 219.25C1100.57 219.803 1099.68 220.191 1098.69 220.412C1097.8 223.068 1096.53 225.393 1094.87 227.385C1093.21 229.377 1091.49 231.314 1089.72 233.195C1087.95 235.077 1086.29 237.069 1084.74 239.172C1083.3 241.164 1082.25 243.654 1081.59 246.643C1078.05 251.07 1074.78 256.105 1071.79 261.75C1068.81 267.284 1066.54 272.707 1064.99 278.02C1062.44 280.897 1060.45 283.941 1059.01 287.15C1057.57 290.36 1056.74 293.902 1056.52 297.775C1055.97 298.107 1055.52 298.55 1055.19 299.104L1053.53 302.424C1053.31 302.977 1052.92 303.42 1052.37 303.752V304.582C1052.37 305.467 1052.2 306.298 1051.87 307.072C1051.54 307.736 1051.15 308.4 1050.71 309.064C1050.38 309.729 1050.05 310.393 1049.71 311.057C1049.38 311.61 1049.22 312.274 1049.22 313.049C1049.22 313.934 1049.44 314.82 1049.88 315.705C1048.66 315.926 1047.83 316.59 1047.39 317.697C1047.06 318.693 1046.56 319.579 1045.89 320.354C1045.45 323.895 1045.01 327.492 1044.57 331.145C1044.12 334.797 1043.9 338.394 1043.9 341.936C1043.9 346.031 1044.35 350.181 1045.23 354.387C1046.23 355.383 1047.11 356.49 1047.89 357.707C1048.66 358.924 1049.44 360.087 1050.21 361.193C1051.1 362.3 1052.04 363.296 1053.03 364.182C1054.03 364.956 1055.36 365.454 1057.02 365.676C1057.02 366.451 1057.18 367.004 1057.52 367.336C1057.85 367.668 1058.12 368.111 1058.35 368.664C1060.67 369.439 1063.11 370.048 1065.65 370.49C1068.2 371.044 1070.74 371.32 1073.29 371.32C1075.06 371.32 1076.83 371.099 1078.6 370.656C1080.48 370.214 1082.03 369.328 1083.25 368C1088.89 367.779 1094.48 366.451 1100.02 364.016C1105.66 361.581 1110.81 358.924 1115.46 356.047H1118.94C1120.16 354.387 1121.65 353.059 1123.42 352.062C1125.2 350.956 1127.02 349.96 1128.9 349.074C1129.23 348.853 1129.68 348.632 1130.23 348.41C1130.78 348.189 1131.23 347.967 1131.56 347.746C1132.78 346.861 1133.99 345.865 1135.21 344.758C1136.54 343.651 1137.87 342.6 1139.2 341.604C1141.41 339.943 1143.68 338.339 1146 336.789C1148.33 335.24 1150.54 333.579 1152.64 331.809C1154.86 330.038 1156.9 328.156 1158.79 326.164C1160.78 324.061 1162.44 321.737 1163.77 319.191C1164.43 319.191 1164.93 319.025 1165.26 318.693C1165.7 318.251 1166.03 317.808 1166.26 317.365C1166.59 316.923 1166.92 316.535 1167.25 316.203C1167.7 315.871 1168.3 315.705 1169.08 315.705C1169.08 314.709 1169.24 313.879 1169.58 313.215C1170.02 312.44 1170.46 311.776 1170.9 311.223C1171.46 310.559 1171.96 309.95 1172.4 309.396C1172.95 308.843 1173.45 308.124 1173.89 307.238V302.59C1175.66 299.712 1176.94 296.669 1177.71 293.459C1178.6 290.249 1179.04 286.984 1179.04 283.664ZM1337.42 361.857C1337.42 362.964 1337.36 363.794 1337.25 364.348C1336.7 364.569 1336.26 364.901 1335.92 365.344C1335.59 365.676 1335.04 365.786 1334.26 365.676C1334.04 367.336 1333.49 368.719 1332.6 369.826C1331.72 370.933 1330.78 371.929 1329.78 372.814C1328.9 373.811 1328.01 374.807 1327.13 375.803C1326.24 376.91 1325.69 378.293 1325.47 379.953C1323.81 380.839 1322.14 382.001 1320.48 383.439C1318.94 384.989 1317.55 386.04 1316.33 386.594C1315.45 387.036 1314.51 387.368 1313.51 387.59C1312.52 387.922 1311.52 388.309 1310.52 388.752C1307.31 390.191 1303.99 391.685 1300.56 393.234C1297.24 394.784 1293.76 395.559 1290.1 395.559H1288.94C1288.5 396.001 1287.95 396.278 1287.28 396.389C1286.62 396.61 1285.95 396.776 1285.29 396.887C1284.63 396.997 1283.96 397.163 1283.3 397.385C1282.63 397.606 1282.14 397.938 1281.8 398.381C1280.59 397.938 1279.26 397.717 1277.82 397.717H1276.66C1274.78 398.16 1273 398.492 1271.34 398.713C1269.68 398.934 1267.91 399.045 1266.03 399.045C1262.71 399.045 1259.39 398.824 1256.07 398.381C1252.75 397.938 1249.43 397.551 1246.11 397.219C1244.01 395.559 1242.29 393.456 1240.96 390.91C1239.64 388.475 1238.97 385.874 1238.97 383.107C1238.97 381.005 1239.41 379.012 1240.3 377.131C1241.18 375.36 1242.35 373.755 1243.79 372.316H1244.28C1245.28 372.316 1246.28 372.095 1247.27 371.652C1248.38 371.21 1249.43 370.988 1250.43 370.988C1251.53 370.988 1252.42 371.431 1253.08 372.316C1253.86 373.202 1254.41 374.253 1254.74 375.471C1255.19 376.688 1255.46 377.906 1255.57 379.123C1255.68 380.451 1255.74 381.503 1255.74 382.277C1256.96 382.831 1258.23 383.163 1259.56 383.273C1261 383.384 1262.43 383.439 1263.87 383.439C1265.31 383.439 1266.92 383.329 1268.69 383.107C1270.46 382.997 1272.23 382.72 1274 382.277C1275.88 381.945 1277.65 381.503 1279.31 380.949C1281.08 380.396 1282.58 379.676 1283.8 378.791C1289.88 378.238 1295.25 376.854 1299.9 374.641C1304.55 372.427 1309.47 369.826 1314.67 366.838C1314.9 365.62 1315.34 364.68 1316 364.016C1316.78 363.241 1317.16 362.134 1317.16 360.695C1317.16 360.474 1317.11 360.253 1317 360.031C1317 359.699 1317 359.423 1317 359.201C1314.78 356.434 1312.46 353.999 1310.03 351.896C1307.7 349.794 1304.66 348.41 1300.89 347.746C1300.45 346.75 1299.73 346.031 1298.74 345.588C1297.74 345.035 1296.69 344.536 1295.58 344.094C1294.48 343.651 1293.42 343.208 1292.43 342.766C1291.43 342.212 1290.71 341.327 1290.27 340.109C1287.28 339.556 1284.18 338.892 1280.97 338.117C1277.87 337.232 1275.22 335.682 1273 333.469C1271.23 333.358 1269.52 333.026 1267.86 332.473C1266.31 331.809 1264.76 331.2 1263.21 330.646C1261.66 329.982 1260.06 329.429 1258.39 328.986C1256.73 328.433 1255.02 328.156 1253.25 328.156C1252.81 327.382 1252.2 326.773 1251.42 326.33C1250.65 325.887 1249.76 325.5 1248.77 325.168C1247.88 324.836 1247 324.504 1246.11 324.172C1245.34 323.729 1244.73 323.12 1244.28 322.346C1243.84 322.456 1243.51 322.678 1243.29 323.01C1243.07 323.342 1242.68 323.508 1242.13 323.508H1241.46C1241.24 322.844 1240.8 322.401 1240.13 322.18C1239.47 321.848 1239.08 321.239 1238.97 320.354C1236.98 320.243 1235.15 319.855 1233.49 319.191C1231.94 318.527 1230.45 317.808 1229.01 317.033C1227.68 316.148 1226.3 315.318 1224.86 314.543C1223.42 313.768 1221.82 313.16 1220.05 312.717C1218.94 311.831 1217.89 310.891 1216.89 309.895C1216.01 308.788 1214.84 308.234 1213.4 308.234C1213.07 308.234 1212.46 308.345 1211.58 308.566C1211.36 306.574 1210.53 305.191 1209.09 304.416C1207.65 303.531 1206.1 302.756 1204.44 302.092C1203.33 299.214 1201.84 296.669 1199.96 294.455C1198.08 292.242 1196.03 290.194 1193.81 288.312C1194.04 287.648 1194.15 287.15 1194.15 286.818C1194.15 285.712 1193.87 284.771 1193.32 283.996C1192.76 283.111 1192.15 282.391 1191.49 281.838C1189.94 276.857 1189.17 271.988 1189.17 267.229C1189.17 260.588 1190.66 254.445 1193.65 248.801C1196.53 243.046 1201.12 238.729 1207.43 235.852C1207.54 234.966 1207.82 234.191 1208.26 233.527C1208.81 232.863 1209.14 232.089 1209.25 231.203C1210.25 231.203 1211.03 230.982 1211.58 230.539C1212.13 230.096 1212.63 229.654 1213.07 229.211C1213.63 228.658 1214.18 228.16 1214.73 227.717C1215.29 227.274 1216.01 226.997 1216.89 226.887C1221.1 223.234 1225.58 220.301 1230.34 218.088C1235.1 215.764 1239.97 213.384 1244.95 210.949C1245.94 210.507 1246.77 209.676 1247.44 208.459H1248.43C1249.54 208.459 1250.37 208.238 1250.92 207.795C1251.59 207.242 1252.53 207.076 1253.75 207.297C1254.19 206.633 1254.74 206.19 1255.41 205.969C1256.18 205.747 1256.9 205.581 1257.56 205.471C1258.34 205.249 1259.06 204.973 1259.72 204.641C1260.39 204.309 1260.83 203.811 1261.05 203.146H1262.21C1264.09 203.146 1265.92 202.87 1267.69 202.316C1269.46 201.652 1271.23 200.933 1273 200.158H1274.17C1276.38 200.158 1278.43 199.771 1280.31 198.996C1282.3 198.111 1284.4 197.502 1286.62 197.17C1287.5 196.949 1288.39 196.893 1289.27 197.004C1290.16 197.115 1291.04 197.17 1291.93 197.17C1292.48 197.17 1293.15 197.115 1293.92 197.004C1294.7 196.893 1295.25 196.561 1295.58 196.008H1295.91C1296.58 196.008 1296.97 196.229 1297.08 196.672C1297.19 197.115 1297.52 197.336 1298.07 197.336C1298.85 197.336 1299.62 197.225 1300.4 197.004C1301.17 196.783 1301.95 196.672 1302.72 196.672C1306.04 196.672 1309.31 197.004 1312.52 197.668C1315.84 198.332 1319.1 198.941 1322.31 199.494C1322.53 200.822 1323.09 201.763 1323.97 202.316C1324.97 202.87 1326.02 203.368 1327.13 203.811V204.475C1327.13 205.36 1327.35 206.079 1327.79 206.633C1327.35 208.182 1326.57 209.344 1325.47 210.119C1324.36 210.894 1323.14 211.558 1321.81 212.111C1322.37 212.554 1322.7 213.163 1322.81 213.938C1322.92 214.712 1322.98 215.432 1322.98 216.096V218.088L1322.14 217.922C1320.37 217.922 1319.49 218.752 1319.49 220.412C1318.05 219.527 1316.45 218.973 1314.67 218.752C1313.01 218.531 1311.35 218.42 1309.69 218.42C1307.48 218.42 1305.16 218.531 1302.72 218.752C1300.29 218.863 1297.91 218.807 1295.58 218.586C1294.7 219.693 1293.59 220.523 1292.26 221.076C1290.93 221.519 1289.61 221.74 1288.28 221.74C1286.84 221.74 1285.46 221.464 1284.13 220.91C1282.8 220.246 1281.86 219.305 1281.31 218.088C1280.75 217.867 1280.25 217.756 1279.81 217.756H1278.32C1276.55 217.756 1274.78 217.977 1273 218.42C1271.34 218.752 1269.63 219.195 1267.86 219.748C1266.09 220.191 1264.32 220.689 1262.55 221.242C1260.89 221.685 1259.17 221.962 1257.4 222.072C1256.73 222.958 1255.85 223.566 1254.74 223.898C1253.64 224.23 1252.75 224.839 1252.09 225.725C1249.76 226.167 1247.66 226.942 1245.78 228.049C1243.9 229.045 1242.07 230.152 1240.3 231.369L1235.15 234.855C1233.49 235.962 1231.61 236.903 1229.51 237.678C1227.96 239.338 1226.52 240.666 1225.19 241.662C1223.86 242.658 1222.15 243.544 1220.05 244.318C1218.72 244.761 1217.94 245.425 1217.72 246.311C1217.61 247.196 1217.17 248.081 1216.39 248.967C1215.73 249.742 1214.9 250.35 1213.9 250.793C1213.02 251.125 1212.24 251.734 1211.58 252.619C1211.03 253.394 1210.58 254.335 1210.25 255.441C1210.03 256.438 1209.75 257.434 1209.42 258.43C1209.09 259.426 1208.7 260.422 1208.26 261.418C1207.82 262.303 1207.15 263.078 1206.27 263.742C1206.27 264.185 1206.21 264.628 1206.1 265.07C1206.1 265.513 1206.1 265.9 1206.1 266.232C1206.1 267.782 1206.27 269.387 1206.6 271.047C1207.04 272.596 1207.32 274.146 1207.43 275.695C1209.64 279.569 1212.24 283.111 1215.23 286.32C1218.22 289.419 1221.43 292.297 1224.86 294.953C1228.29 297.609 1231.83 300.1 1235.48 302.424C1239.25 304.748 1242.96 307.017 1246.61 309.23C1247.94 309.12 1249.15 309.286 1250.26 309.729C1251.37 310.061 1252.53 310.282 1253.75 310.393C1255.07 311.389 1256.62 312.163 1258.39 312.717L1263.71 314.377C1265.48 314.93 1267.19 315.594 1268.85 316.369C1270.51 317.033 1271.9 317.974 1273 319.191C1273.56 319.302 1274.06 319.468 1274.5 319.689C1274.94 319.8 1275.44 319.855 1275.99 319.855C1276.66 319.855 1277.04 319.634 1277.15 319.191C1282.14 321.073 1287 323.176 1291.76 325.5C1296.52 327.714 1301.56 329.429 1306.87 330.646C1308.97 332.417 1311.3 333.967 1313.84 335.295C1316.39 336.623 1318.94 338.007 1321.48 339.445C1324.03 340.773 1326.46 342.268 1328.79 343.928C1331.11 345.477 1333.16 347.359 1334.93 349.572C1335.15 351.675 1335.59 353.723 1336.26 355.715C1337.03 357.596 1337.42 359.644 1337.42 361.857Z" fill="white"/>
<g filter="url(#filter2_i)">
<path d="M515.383 301C515.383 385.159 447.159 453.383 363 453.383C278.841 453.383 210.617 385.159 210.617 301C210.617 216.841 278.841 148.617 363 148.617C447.159 148.617 515.383 216.841 515.383 301ZM241.094 301C241.094 368.327 295.673 422.906 363 422.906C430.327 422.906 484.906 368.327 484.906 301C484.906 233.673 430.327 179.094 363 179.094C295.673 179.094 241.094 233.673 241.094 301Z" fill="white"/>
</g>
<g clip-path="url(#clip0)">
<g filter="url(#filter3_i)">
<g filter="url(#filter4_i)">
<path d="M393.928 267.995C393.928 279.967 387.325 290.399 377.554 295.832C395.742 365.844 395.742 365.844 395.742 365.844C395.742 365.844 333.676 365.844 331.283 365.844C350.173 297.532 331.283 365.844 350.173 297.532C338.502 292.819 330.249 281.366 330.249 267.995C330.249 250.407 344.5 236.156 362.086 236.156C379.677 236.156 393.928 250.407 393.928 267.995Z" fill="white"/>
</g>
</g>
</g>
</g>
<defs>
<filter id="filter0_d" x="4" y="0" width="1762" height="614" filterUnits="userSpaceOnUse" color-interpolation-filters="sRGB">
<feFlood flood-opacity="0" result="BackgroundImageFix"/>
<feColorMatrix in="SourceAlpha" type="matrix" values="0 0 0 0 0 0 0 0 0 0 0 0 0 0 0 0 0 0 127 0"/>
<feOffset dx="10" dy="10"/>
<feGaussianBlur stdDeviation="2"/>
<feColorMatrix type="matrix" values="0 0 0 0 0 0 0 0 0 0 0 0 0 0 0 0 0 0 0.05 0"/>
<feBlend mode="normal" in2="BackgroundImageFix" result="effect1_dropShadow"/>
<feBlend mode="normal" in="SourceGraphic" in2="effect1_dropShadow" result="shape"/>
</filter>
<filter id="filter1_d" x="0" y="0" width="1756" height="608" filterUnits="userSpaceOnUse" color-interpolation-filters="sRGB">
<feFlood flood-opacity="0" result="BackgroundImageFix"/>
<feColorMatrix in="SourceAlpha" type="matrix" values="0 0 0 0 0 0 0 0 0 0 0 0 0 0 0 0 0 0 127 0"/>
<feOffset dy="4"/>
<feGaussianBlur stdDeviation="2"/>
<feColorMatrix type="matrix" values="0 0 0 0 0 0 0 0 0 0 0 0 0 0 0 0 0 0 0.25 0"/>
<feBlend mode="normal" in2="BackgroundImageFix" result="effect1_dropShadow"/>
<feBlend mode="normal" in="SourceGraphic" in2="effect1_dropShadow" result="shape"/>
</filter>
<filter id="filter2_i" x="210.617" y="148.617" width="306.062" height="306.062" filterUnits="userSpaceOnUse" color-interpolation-filters="sRGB">
<feFlood flood-opacity="0" result="BackgroundImageFix"/>
<feBlend mode="normal" in="SourceGraphic" in2="BackgroundImageFix" result="shape"/>
<feColorMatrix in="SourceAlpha" type="matrix" values="0 0 0 0 0 0 0 0 0 0 0 0 0 0 0 0 0 0 127 0" result="hardAlpha"/>
<feOffset dx="1.29688" dy="1.29688"/>
<feGaussianBlur stdDeviation="1.29688"/>
<feComposite in2="hardAlpha" operator="arithmetic" k2="-1" k3="1"/>
<feColorMatrix type="matrix" values="0 0 0 0 0 0 0 0 0 0 0 0 0 0 0 0 0 0 0.25 0"/>
<feBlend mode="normal" in2="shape" result="effect1_innerShadow"/>
</filter>
<filter id="filter3_i" x="330.249" y="236.156" width="66.79" height="130.984" filterUnits="userSpaceOnUse" color-interpolation-filters="sRGB">
<feFlood flood-opacity="0" result="BackgroundImageFix"/>
<feBlend mode="normal" in="SourceGraphic" in2="BackgroundImageFix" result="shape"/>
<feColorMatrix in="SourceAlpha" type="matrix" values="0 0 0 0 0 0 0 0 0 0 0 0 0 0 0 0 0 0 127 0" result="hardAlpha"/>
<feOffset dx="1.29688" dy="1.29688"/>
<feGaussianBlur stdDeviation="0.648438"/>
<feComposite in2="hardAlpha" operator="arithmetic" k2="-1" k3="1"/>
<feColorMatrix type="matrix" values="0 0 0 0 0 0 0 0 0 0 0 0 0 0 0 0 0 0 0.2 0"/>
<feBlend mode="normal" in2="shape" result="effect1_innerShadow"/>
</filter>
<filter id="filter4_i" x="330.249" y="236.156" width="65.4932" height="133.688" filterUnits="userSpaceOnUse" color-interpolation-filters="sRGB">
<feFlood flood-opacity="0" result="BackgroundImageFix"/>
<feBlend mode="normal" in="SourceGraphic" in2="BackgroundImageFix" result="shape"/>
<feColorMatrix in="SourceAlpha" type="matrix" values="0 0 0 0 0 0 0 0 0 0 0 0 0 0 0 0 0 0 127 0" result="hardAlpha"/>
<feOffset dy="4"/>
<feGaussianBlur stdDeviation="2"/>
<feComposite in2="hardAlpha" operator="arithmetic" k2="-1" k3="1"/>
<feColorMatrix type="matrix" values="0 0 0 0 0 0 0 0 0 0 0 0 0 0 0 0 0 0 0.25 0"/>
<feBlend mode="normal" in2="shape" result="effect1_innerShadow"/>
</filter>
<clipPath id="clip0">
<rect width="129.688" height="129.688" fill="white" transform="translate(298.156 236.156)"/>
</clipPath>
</defs>
</svg>
